<svg width="105" height="47" viewBox="0 0 105 47" fill="currentColor" xmlns="http://www.w3.org/2000/svg">
  <path
    d="M19.1748 46.7441H77.2803C81.0889 46.7441 84.0918 46.4593 86.2891 45.8896C88.4864 45.32 90.301 44.3028 91.733 42.8379C93.1983 41.4057 94.2077 39.599 94.761 37.418C95.3143 35.237 95.591 32.226 95.591 28.3848V19.3027C95.591 15.4616 95.3143 12.4505 94.761 10.2695C94.2077 8.08853 93.1983 6.26563 91.733 4.80083C90.2685 3.3685 88.4457 2.35936 86.2647 1.77343C84.0837 1.1875 81.0889 0.894531 77.2803 0.894531H18.6865C15.1383 0.894531 12.2819 1.19567 10.1172 1.79793C7.95245 2.40013 6.15395 3.41737 4.72168 4.84963C3.28941 6.34703 2.27215 8.1618 1.66988 10.2939C1.06769 12.4261 0.766602 15.2663 0.766602 18.8145V28.3848C0.766602 32.226 1.05956 35.237 1.64548 37.418C2.23141 39.599 3.24055 41.4057 4.67288 42.8379C6.13768 44.3028 7.96058 45.32 10.1416 45.8896C12.3226 46.4593 15.3336 46.7441 19.1748 46.7441ZM18.1983 44.5957C15.4313 44.5957 13.0632 44.319 11.0938 43.7656C9.12438 43.2122 7.53745 42.3333 6.33298 41.1289C5.16111 39.9571 4.30665 38.4027 3.76958 36.4658C3.23245 34.529 2.96388 32.1608 2.96388 29.3613V18.7656C2.96388 15.8034 3.23245 13.3213 3.76958 11.3193C4.30665 9.3174 5.14485 7.71423 6.28418 6.50983C7.48858 5.27283 9.11618 4.3939 11.167 3.87303C13.2178 3.35223 15.708 3.09183 18.6377 3.09183H78.2569C81.0237 3.09183 83.3838 3.36853 85.3369 3.92193C87.29 4.47533 88.8525 5.35423 90.0244 6.55863C91.2288 7.76303 92.0997 9.32553 92.637 11.2461C93.1737 13.1667 93.442 15.5268 93.442 18.3262V29.3613C93.442 32.1608 93.1653 34.529 92.612 36.4658C92.0587 38.4027 91.1961 39.9571 90.0244 41.1289C88.8525 42.3659 87.29 43.253 85.3369 43.79C83.3838 44.3272 81.0237 44.5957 78.2569 44.5957H18.1983ZM98.716 32.1445C99.562 32.112 100.441 31.7377 101.353 31.0215C102.264 30.3054 103.045 29.337 103.696 28.1162C104.347 26.8956 104.673 25.4714 104.673 23.8438C104.673 22.2162 104.347 20.792 103.696 19.5713C103.045 18.3506 102.264 17.3822 101.353 16.666C100.441 15.9499 99.562 15.5756 98.716 15.543V32.1445Z"
    fill="black" />
  <path
    d="M18.0518 41.5195H78.3545C83.0746 41.5195 86.2484 40.6895 87.876 39.0293C89.5687 37.3366 90.4151 34.1465 90.4151 29.459V18.1797C90.4151 15.7383 90.2117 13.7527 89.8047 12.2227C89.3979 10.6927 88.7712 9.48831 87.9248 8.60944C86.1995 6.94924 83.0094 6.11914 78.3545 6.11914H18.4912C15.8219 6.11914 13.6816 6.32261 12.0703 6.72954C10.459 7.13641 9.26271 7.76304 8.48151 8.60944C7.63511 9.48831 7.00848 10.7253 6.60161 12.3203C6.19468 13.9154 5.99121 16.0313 5.99121 18.668V29.459C5.99121 31.933 6.19468 33.9349 6.60161 35.4648C7.00848 36.9948 7.63511 38.183 8.48151 39.0293C10.2068 40.6895 13.3969 41.5195 18.0518 41.5195Z"
    fill="black" />
</svg>
