<svg width="798" height="798" viewBox="0 0 798 798" fill="none" xmlns="http://www.w3.org/2000/svg">
<path fill-rule="evenodd" clip-rule="evenodd" d="M42.0598 241.058L241.058 755.94L755.94 556.942L556.942 42.0597L42.0598 241.058ZM16.6181 225.161C13.5272 226.355 11.9899 229.829 13.1845 232.92L225.161 781.382C226.355 784.473 229.829 786.01 232.92 784.815L781.382 572.839C784.473 571.644 786.01 568.17 784.815 565.08L572.839 16.618C571.645 13.5271 568.171 11.9898 565.08 13.1844L16.6181 225.161Z" fill="#4F45E4" stroke="#4F45E4" stroke-width="24"/>
<path d="M307.145 240.082C309.749 240.082 311.865 240.603 313.492 241.645C315.12 242.621 316.292 244.216 317.008 246.43L345.328 335.98H353.824C355.387 335.98 356.591 336.241 357.438 336.762C358.284 337.283 358.902 338.259 359.293 339.691C359.749 341.124 359.977 343.207 359.977 345.941C359.977 348.676 359.749 350.759 359.293 352.191C358.902 353.624 358.284 354.633 357.438 355.219C356.591 355.74 355.387 356 353.824 356H312.418C310.855 356 309.651 355.74 308.805 355.219C307.958 354.633 307.307 353.624 306.852 352.191C306.461 350.759 306.266 348.676 306.266 345.941C306.266 343.207 306.461 341.124 306.852 339.691C307.307 338.259 307.958 337.283 308.805 336.762C309.651 336.241 310.855 335.98 312.418 335.98H320.816L316.422 321.82H280.875L276.48 335.98H283.707C285.27 335.98 286.474 336.241 287.32 336.762C288.167 337.283 288.785 338.259 289.176 339.691C289.632 341.124 289.859 343.207 289.859 345.941C289.859 348.676 289.632 350.759 289.176 352.191C288.785 353.624 288.167 354.633 287.32 355.219C286.474 355.74 285.27 356 283.707 356H244.254C242.691 356 241.487 355.74 240.641 355.219C239.794 354.633 239.176 353.624 238.785 352.191C238.329 350.759 238.102 348.676 238.102 345.941C238.102 343.207 238.329 341.124 238.785 339.691C239.176 338.259 239.794 337.283 240.641 336.762C241.487 336.241 242.691 335.98 244.254 335.98H252.457L277.164 260.102H260.855C259.293 260.102 258.089 259.841 257.242 259.32C256.396 258.734 255.745 257.725 255.289 256.293C254.898 254.861 254.703 252.777 254.703 250.043C254.703 247.309 254.898 245.225 255.289 243.793C255.745 242.361 256.396 241.384 257.242 240.863C258.089 240.342 259.293 240.082 260.855 240.082H307.145ZM298.551 260.102L286.539 301.801H310.855L299.137 260.102H298.551ZM549.84 240.082C551.402 240.082 552.607 240.375 553.453 240.961C554.299 241.482 554.918 242.458 555.309 243.891C555.764 245.323 555.992 247.406 555.992 250.141C555.992 252.875 555.764 254.958 555.309 256.391C554.918 257.823 554.299 258.799 553.453 259.32C552.607 259.841 551.402 260.102 549.84 260.102H544.273V351.703C544.273 353.852 543.46 355.447 541.832 356.488C540.204 357.595 537.438 358.148 533.531 358.148C530.536 358.148 528.29 357.725 526.793 356.879C525.361 356.098 524.091 354.796 522.984 352.973L479.039 280.219H478.648V335.98H489.488C491.051 335.98 492.255 336.273 493.102 336.859C493.948 337.38 494.566 338.357 494.957 339.789C495.413 341.221 495.641 343.305 495.641 346.039C495.641 348.773 495.413 350.857 494.957 352.289C494.566 353.721 493.948 354.698 493.102 355.219C492.255 355.74 491.051 356 489.488 356H450.035C448.473 356 447.268 355.74 446.422 355.219C445.576 354.698 444.924 353.721 444.469 352.289C444.078 350.857 443.883 348.773 443.883 346.039C443.883 343.305 444.078 341.221 444.469 339.789C444.924 338.357 445.576 337.38 446.422 336.859C447.268 336.273 448.473 335.98 450.035 335.98H456.578V260.102H450.035C448.473 260.102 447.268 259.841 446.422 259.32C445.576 258.799 444.924 257.823 444.469 256.391C444.078 254.958 443.883 252.875 443.883 250.141C443.883 247.406 444.078 245.323 444.469 243.891C444.924 242.458 445.576 241.482 446.422 240.961C447.268 240.375 448.473 240.082 450.035 240.082H475.816C478.421 240.082 480.243 240.961 481.285 242.719L521.812 309.809H522.203V260.102H513.219C511.656 260.102 510.452 259.841 509.605 259.32C508.759 258.799 508.108 257.823 507.652 256.391C507.262 254.958 507.066 252.875 507.066 250.141C507.066 247.406 507.262 245.323 507.652 243.891C508.108 242.458 508.759 241.482 509.605 240.961C510.452 240.375 511.656 240.082 513.219 240.082H549.84ZM297.086 440.082C308.479 440.082 318.277 442.328 326.48 446.82C334.684 451.312 340.966 457.921 345.328 466.645C349.69 475.303 351.871 485.753 351.871 497.992C351.871 510.232 349.69 520.714 345.328 529.438C340.966 538.096 334.684 544.704 326.48 549.262C318.277 553.754 308.479 556 297.086 556H251.09C249.527 556 248.323 555.74 247.477 555.219C246.63 554.698 245.979 553.721 245.523 552.289C245.133 550.857 244.938 548.773 244.938 546.039C244.938 543.305 245.133 541.221 245.523 539.789C245.979 538.357 246.63 537.38 247.477 536.859C248.323 536.273 249.527 535.98 251.09 535.98H260.562V460.102H251.09C249.527 460.102 248.323 459.841 247.477 459.32C246.63 458.799 245.979 457.823 245.523 456.391C245.133 454.958 244.938 452.875 244.938 450.141C244.938 447.406 245.133 445.323 245.523 443.891C245.979 442.458 246.63 441.482 247.477 440.961C248.323 440.375 249.527 440.082 251.09 440.082H297.086ZM284.977 535.004H295.133C305.224 535.004 312.841 531.879 317.984 525.629C323.128 519.314 325.699 510.102 325.699 497.992C325.699 485.883 323.128 476.703 317.984 470.453C312.841 464.203 305.224 461.078 295.133 461.078H284.977V535.004ZM502.477 440.082C516.214 440.082 526.76 443.109 534.117 449.164C541.474 455.219 545.152 464.008 545.152 475.531C545.152 490.57 537.079 500.043 520.934 503.949C524.449 505.316 527.249 507.335 529.332 510.004C530.699 511.762 531.936 513.617 533.043 515.57C534.215 517.458 535.549 519.867 537.047 522.797C538.609 525.922 539.814 528.168 540.66 529.535C541.962 531.684 543.264 533.311 544.566 534.418C545.868 535.46 547.333 535.98 548.961 535.98H550.816C552.379 535.98 553.583 536.273 554.43 536.859C555.276 537.38 555.895 538.357 556.285 539.789C556.741 541.221 556.969 543.305 556.969 546.039C556.969 548.773 556.741 550.857 556.285 552.289C555.895 553.721 555.276 554.698 554.43 555.219C553.583 555.74 552.379 556 550.816 556H541.344C536.201 556 532.034 554.958 528.844 552.875C525.654 550.792 522.724 547.309 520.055 542.426C518.753 540.147 517.19 537.022 515.367 533.051C514.065 530.056 512.828 527.484 511.656 525.336C510.484 523.122 509.182 520.974 507.75 518.891C505.732 516.091 503.486 514.073 501.012 512.836C498.538 511.599 495.576 510.98 492.125 510.98H485.875V535.98H495.348C496.91 535.98 498.115 536.273 498.961 536.859C499.807 537.38 500.426 538.357 500.816 539.789C501.272 541.221 501.5 543.305 501.5 546.039C501.5 548.773 501.272 550.857 500.816 552.289C500.426 553.721 499.807 554.698 498.961 555.219C498.115 555.74 496.91 556 495.348 556H451.012C449.449 556 448.245 555.74 447.398 555.219C446.552 554.698 445.901 553.721 445.445 552.289C445.055 550.857 444.859 548.773 444.859 546.039C444.859 543.305 445.055 541.221 445.445 539.789C445.901 538.357 446.552 537.38 447.398 536.859C448.245 536.273 449.449 535.98 451.012 535.98H461.461V460.102H451.012C449.449 460.102 448.245 459.841 447.398 459.32C446.552 458.799 445.901 457.823 445.445 456.391C445.055 454.958 444.859 452.875 444.859 450.141C444.859 447.406 445.055 445.323 445.445 443.891C445.901 442.458 446.552 441.482 447.398 440.961C448.245 440.375 449.449 440.082 451.012 440.082H502.477ZM485.875 489.984H500.426C507.066 489.984 511.982 488.812 515.172 486.469C518.362 484.06 519.957 480.414 519.957 475.531C519.957 470.648 518.362 467.035 515.172 464.691C511.982 462.283 507.066 461.078 500.426 461.078H485.875V489.984Z" fill="#374151"/>
<path fill-rule="evenodd" clip-rule="evenodd" d="M93.6549 77.6159C96.3845 76.2277 99.4268 75.3423 102.67 75.0903C103.443 75.0303 104.22 75 105 75H134.4C147.655 75 158.4 85.7452 158.4 99C158.4 112.255 147.655 123 134.4 123H123V134.4C123 147.655 112.255 158.4 99 158.4C85.7452 158.4 75 147.655 75 134.4V105C75 104.22 75.0303 103.443 75.0903 102.67C75.2146 101.07 75.4929 99.5198 75.9097 98.0314C76.2131 96.5106 76.6692 94.997 77.2859 93.51C79.1204 89.086 81.9631 85.2254 85.5081 82.1949C87.9761 80.0851 90.7486 78.5632 93.6549 77.6159ZM228 99C228 85.7452 238.745 75 252 75H428.4C441.655 75 452.4 85.7452 452.4 99C452.4 112.255 441.655 123 428.4 123H252C238.745 123 228 112.255 228 99ZM639.6 99C639.6 85.7452 650.345 75 663.6 75H693C693.78 75 694.557 75.0303 695.33 75.0903C696.93 75.2146 698.48 75.4929 699.969 75.9097C701.489 76.2131 703.003 76.6692 704.49 77.2859C708.914 79.1204 712.775 81.9631 715.805 85.5081C717.915 87.9761 719.437 90.7486 720.384 93.6549C721.772 96.3845 722.658 99.4268 722.91 102.67C722.97 103.443 723 104.22 723 105V134.4C723 147.655 712.255 158.4 699 158.4C685.745 158.4 675 147.655 675 134.4V123H663.6C650.345 123 639.6 112.255 639.6 99ZM699 228C712.255 228 723 238.745 723 252V428.4C723 441.655 712.255 452.4 699 452.4C685.745 452.4 675 441.655 675 428.4V252C675 238.745 685.745 228 699 228ZM99 345.6C112.255 345.6 123 356.345 123 369.6V546C123 559.255 112.255 570 99 570C85.7452 570 75 559.255 75 546V369.6C75 356.345 85.7452 345.6 99 345.6ZM99 639.6C112.255 639.6 123 650.345 123 663.6V675H134.4C147.655 675 158.4 685.745 158.4 699C158.4 712.255 147.655 723 134.4 723H105C104.22 723 103.443 722.97 102.67 722.91C101.07 722.785 99.5195 722.507 98.0311 722.09C96.5104 721.787 94.9969 721.331 93.51 720.714C89.086 718.88 85.2254 716.037 82.1949 712.492C80.0851 710.024 78.5632 707.251 77.6159 704.345C76.2277 701.615 75.3423 698.573 75.0903 695.33C75.0303 694.557 75 693.78 75 693V663.6C75 650.345 85.7452 639.6 99 639.6ZM699 639.6C712.255 639.6 723 650.345 723 663.6V693C723 693.78 722.97 694.557 722.91 695.33C722.785 696.93 722.507 698.48 722.09 699.969C721.787 701.49 721.331 703.003 720.714 704.49C718.88 708.914 716.037 712.775 712.492 715.805C710.024 717.915 707.251 719.437 704.345 720.384C701.615 721.772 698.573 722.658 695.33 722.91C694.557 722.97 693.78 723 693 723H663.6C650.345 723 639.6 712.255 639.6 699C639.6 685.745 650.345 675 663.6 675H675V663.6C675 650.345 685.745 639.6 699 639.6ZM345.6 699C345.6 685.745 356.345 675 369.6 675H546C559.255 675 570 685.745 570 699C570 712.255 559.255 723 546 723H369.6C356.345 723 345.6 712.255 345.6 699Z" fill="#374151"/>
</svg>
