<svg width="90" height="65" viewBox="0 0 90 65" fill="currentColor" xmlns="http://www.w3.org/2000/svg">
  <path
    d="M6.56073 28.0098C6.9188 28.4329 7.35826 28.6363 7.87913 28.6201C8.39993 28.6038 8.85563 28.3841 9.24623 27.9609C13.9338 22.9479 19.313 19.1556 25.3839 16.584C31.4549 14.0124 37.941 12.7266 44.842 12.7266C51.8082 12.7266 58.3267 14.0286 64.3976 16.6328C70.4686 19.237 75.8641 23.0293 80.5841 28.0098C80.9422 28.3678 81.3735 28.5469 81.8781 28.5469C82.3827 28.5469 82.814 28.3353 83.172 27.9121L88.6408 22.4922C88.9664 22.1341 89.1373 21.7516 89.1535 21.3447C89.1698 20.9378 89.0314 20.5553 88.7384 20.1973C85.7436 16.4863 81.9595 13.166 77.3859 10.2363C72.8123 7.3066 67.7423 4.9954 62.1759 3.30267C56.6095 1.61 50.8316 0.763672 44.842 0.763672C38.8524 0.763672 33.0744 1.61 27.508 3.30267C21.9416 4.9954 16.8716 7.3066 12.298 10.2363C7.7245 13.166 3.94032 16.4863 0.9455 20.1973C0.68508 20.5553 0.554871 20.9378 0.554871 21.3447C0.554871 21.7516 0.733908 22.1341 1.09198 22.4922L6.56073 28.0098ZM22.4298 43.9766C22.853 44.4323 23.3169 44.6357 23.8214 44.5869C24.326 44.5381 24.7899 44.2858 25.213 43.8301C27.4592 41.291 30.3319 39.1914 33.8312 37.5312C37.3306 35.871 41.0008 35.0572 44.842 35.0898C48.7482 35.0572 52.451 35.8955 55.9504 37.6045C59.4498 39.3135 62.355 41.4375 64.6662 43.9766C65.0568 44.3997 65.4881 44.6113 65.9601 44.6113C66.4321 44.6113 66.8797 44.3834 67.3029 43.9277L73.4064 37.9219C73.732 37.5963 73.9029 37.222 73.9191 36.7988C73.9354 36.3756 73.8133 35.985 73.5529 35.627C71.5998 33.2506 69.1584 31.1185 66.2287 29.2305C63.299 27.3424 60.0194 25.845 56.3898 24.7383C52.7603 23.6315 48.911 23.0781 44.842 23.0781C40.8056 23.0781 36.9725 23.6315 33.3429 24.7383C29.7134 25.845 26.4338 27.3424 23.5041 29.2305C20.5744 31.1185 18.133 33.2506 16.1798 35.627C15.8869 35.985 15.7486 36.3675 15.7648 36.7744C15.7811 37.1813 15.9683 37.5638 16.3263 37.9219L22.4298 43.9766ZM44.842 64.8261C45.2977 64.8261 45.7534 64.6959 46.2091 64.4355C46.6649 64.1751 47.2834 63.6705 48.0646 62.9218L57.4884 53.8887C57.7814 53.5957 57.9605 53.2376 58.0255 52.8145C58.0907 52.3913 57.9768 52.0006 57.6838 51.6426C56.3817 49.9824 54.6076 48.5338 52.3615 47.2969C50.1154 46.0599 47.6089 45.4414 44.842 45.4414C42.01 45.4414 39.4546 46.0924 37.1759 47.3945C34.8973 48.6966 33.1233 50.2103 31.8537 51.9355C31.6584 52.2285 31.6014 52.554 31.6828 52.9121C31.7642 53.2701 31.9676 53.5957 32.2931 53.8887L41.6193 62.9218C42.4006 63.638 43.0191 64.1344 43.4748 64.4111C43.9306 64.6878 44.3863 64.8261 44.842 64.8261Z"
    fill="currentColor" />
</svg>
