<?xml version="1.0" encoding="UTF-8" standalone="no"?>
<svg
   xmlns:dc="http://purl.org/dc/elements/1.1/"
   xmlns:cc="http://creativecommons.org/ns#"
   xmlns:rdf="http://www.w3.org/1999/02/22-rdf-syntax-ns#"
   xmlns:svg="http://www.w3.org/2000/svg"
   xmlns="http://www.w3.org/2000/svg"
   viewBox="0 0 32 32"
   xml:space="preserve"
   id="svg2"
   version="1.1"><metadata
     id="metadata8"><rdf:RDF><cc:Work
         rdf:about=""><dc:format>image/svg+xml</dc:format><dc:type
           rdf:resource="http://purl.org/dc/dcmitype/StillImage" /></cc:Work></rdf:RDF></metadata><defs
     id="defs6" /><g
     transform="matrix(1.3333333,0,0,-1.3333333,0,32)"
     id="g10"><g
       transform="translate(1,1.005066)"
       id="g12"><path
         id="path14"
         style="fill-opacity:1;fill-rule:nonzero;stroke:none"
         d="m 5,20.994934 c -0.65661,0 -1.306789,-0.12933 -1.913417,-0.380602 C 2.479955,20.363058 1.928759,19.994761 1.464466,19.530468 0.526784,18.592787 0,17.321016 0,15.994934 v -8 C 0,6.668852 0.526784,5.397082 1.464466,4.4594 1.928759,3.995108 2.479955,3.62681 3.086583,3.375536 3.693211,3.124262 4.34339,2.994934 5,2.994934 h 1 v 2 H 5 c -0.79565,0 -1.558711,0.316071 -2.12132,0.878679 C 2.316071,6.436222 2,7.199285 2,7.994934 v 8 c 0,0.795651 0.316071,1.558712 0.87868,2.121321 C 3.441289,18.678864 4.20435,18.994934 5,18.994934 h 12 c 0.795649,0 1.558712,-0.31607 2.121321,-0.878679 C 19.683929,17.553646 20,16.790585 20,15.994934 v -8 C 20,7.199285 19.683929,6.436222 19.121321,5.873613 18.558712,5.311005 17.795649,4.994934 17,4.994934 h -4.798 l 1.298,1.298 c 0.09551,0.092247 0.171692,0.202591 0.224101,0.324595 0.05241,0.122003 0.08,0.253224 0.08115,0.386003 0.0012,0.13278 -0.02415,0.26446 -0.07443,0.387356 -0.05028,0.122896 -0.124534,0.234548 -0.218427,0.328441 -0.09389,0.093893 -0.205545,0.168146 -0.328441,0.218427 -0.122896,0.05028 -0.254576,0.075582 -0.387356,0.074428 C 12.663819,8.01103 12.532599,7.983444 12.410596,7.931035 12.288592,7.878626 12.178247,7.802444 12.086,7.706934 l -3.713,-3.712 3.713,-3.712 c 0.188603,-0.182157 0.441205,-0.282953 0.703401,-0.280674 0.262197,0.002279 0.513009,0.107449 0.698418,0.292856 0.185408,0.185408 0.290577,0.436219 0.292855,0.698416 0.0023,0.262198 -0.09852,0.514799 -0.280674,0.703402 l -1.298,1.298 H 17 c 0.656609,0 1.306789,0.129328 1.913418,0.380602 0.606628,0.251274 1.157823,0.619572 1.622116,1.083864 0.464292,0.464293 0.83259,1.015488 1.083864,1.622116 C 21.870672,6.688145 22,7.338325 22,7.994934 v 8 c 0,0.656609 -0.129328,1.306789 -0.380602,1.913418 -0.251274,0.606628 -0.619572,1.157823 -1.083864,1.622116 -0.464293,0.464293 -1.015488,0.83259 -1.622116,1.083864 C 18.306789,20.865604 17.656609,20.994934 17,20.994934 Z" /></g></g></svg>
