<?xml version="1.0" encoding="UTF-8" standalone="no"?>
<svg
   xmlns:dc="http://purl.org/dc/elements/1.1/"
   xmlns:cc="http://creativecommons.org/ns#"
   xmlns:rdf="http://www.w3.org/1999/02/22-rdf-syntax-ns#"
   xmlns:svg="http://www.w3.org/2000/svg"
   xmlns="http://www.w3.org/2000/svg"
   viewBox="0 0 32 32"
   xml:space="preserve"
   id="svg2"
   version="1.1"><metadata
     id="metadata8"><rdf:RDF><cc:Work
         rdf:about=""><dc:format>image/svg+xml</dc:format><dc:type
           rdf:resource="http://purl.org/dc/dcmitype/StillImage" /></cc:Work></rdf:RDF></metadata><defs
     id="defs6" /><g
     transform="matrix(1.3333333,0,0,-1.3333333,0,32)"
     id="g10"><g
       transform="translate(1,4)"
       id="g12"><path
         id="path14"
         style="fill-opacity:1;fill-rule:nonzero;stroke:none"
         d="m 10.382,17.484003 c 0.306,0.323 0.448,0.700001 0.448,0.969 h 2 v -9.453 h -2 v 6 H 9 v 2.000001 h 0.378 c 0.341,0 0.706,0.169998 1.004,0.483999 z M 0,13.000003 c 0,1.326082 0.526784,2.597852 1.464466,3.535535 C 2.402148,17.473219 3.673918,18.000004 5,18.000004 h 1 v -2 H 5 c -0.79565,0 -1.558711,-0.316072 -2.12132,-0.878681 C 2.316071,14.558714 2,13.795652 2,13.000003 v -8 C 2,4.204353 2.316071,3.441291 2.87868,2.878682 3.441289,2.316072 4.20435,2.000004 5,2.000004 h 1 v -2 H 5 C 4.34339,4e-6 3.693211,0.129332 3.086583,0.380606 2.479955,0.63188 1.928759,1.000177 1.464466,1.46447 0.526784,2.402151 0,3.673921 0,5.000003 Z" /></g><g
       transform="translate(1,1.447205)"
       id="g16"><path
         id="path18"
         style="fill-opacity:1;fill-rule:nonzero;stroke:none"
         d="m 17,18.552799 h -1 v 2 h 1 c 0.656609,0 1.306789,-0.129329 1.913418,-0.380604 0.606628,-0.251272 1.157823,-0.619569 1.622116,-1.083862 0.464292,-0.464294 0.83259,-1.015489 1.083864,-1.622118 C 21.870672,16.859589 22,16.209408 22,15.552798 v -8 C 22,6.896189 21.870672,6.246008 21.619398,5.63938 21.368124,5.032753 20.999826,4.481558 20.535534,4.017265 20.071241,3.552973 19.520046,3.184675 18.913418,2.933401 18.306789,2.682127 17.656609,2.552799 17,2.552799 h -4.798 l 1.298,-1.298 C 13.687641,1.067291 13.793109,0.812923 13.793202,0.547653 13.793296,0.282383 13.688007,0.027941 13.5005,-0.1597 13.312992,-0.347342 13.058623,-0.45281 12.793353,-0.452904 12.528083,-0.452997 12.273642,-0.347708 12.086,-0.1602 l -3.713,3.712999 3.713,3.711999 c 0.188603,0.182159 0.441205,0.282952 0.703401,0.280674 0.262197,-0.00228 0.513009,-0.107447 0.698418,-0.292855 0.185408,-0.185408 0.290577,-0.436221 0.292855,-0.698418 0.0023,-0.262196 -0.09852,-0.514798 -0.280674,-0.7034 l -1.298,-1.298 H 17 c 0.795649,0 1.558712,0.316069 2.121321,0.878679 C 19.683929,5.994086 20,6.757149 20,7.552798 v 8 c 0,0.79565 -0.316071,1.558711 -0.878679,2.12132 C 18.558712,18.236729 17.795649,18.552799 17,18.552799 Z" /></g></g></svg>
