<?xml version="1.0" encoding="UTF-8" standalone="no"?>
<svg
   xmlns:dc="http://purl.org/dc/elements/1.1/"
   xmlns:cc="http://creativecommons.org/ns#"
   xmlns:rdf="http://www.w3.org/1999/02/22-rdf-syntax-ns#"
   xmlns:svg="http://www.w3.org/2000/svg"
   xmlns="http://www.w3.org/2000/svg"
   viewBox="0 0 32 32"
   xml:space="preserve"
   id="svg2"
   version="1.1"><metadata
     id="metadata8"><rdf:RDF><cc:Work
         rdf:about=""><dc:format>image/svg+xml</dc:format><dc:type
           rdf:resource="http://purl.org/dc/dcmitype/StillImage" /></cc:Work></rdf:RDF></metadata><defs
     id="defs6" /><g
     transform="matrix(1.3333333,0,0,-1.3333333,0,32)"
     id="g10"><g
       transform="translate(1,3.993774)"
       id="g12"><path
         id="path14"
         style="fill-opacity:1;fill-rule:nonzero;stroke:none"
         d="m 17.788,16.304251 c -0.182157,0.188602 -0.282953,0.441204 -0.280674,0.703401 0.0023,0.262196 0.107449,0.513008 0.292856,0.698418 0.185408,0.185408 0.436219,0.290577 0.698416,0.292854 0.262198,0.0023 0.514799,-0.09852 0.703402,-0.280674 l 3.712,-3.712 -3.712,-3.712 C 19.109753,10.19874 18.999409,10.122559 18.877405,10.070149 18.755402,10.01774 18.624182,9.990154 18.491402,9.989 c -0.13278,-0.00115 -0.26446,0.024147 -0.387356,0.074429 -0.122896,0.05028 -0.234549,0.124534 -0.328442,0.218427 -0.09389,0.09389 -0.168144,0.205544 -0.218426,0.32844 -0.05028,0.122896 -0.07558,0.254577 -0.07443,0.387356 0.0012,0.132779 0.02874,0.263998 0.08115,0.386003 0.05241,0.122004 0.128592,0.232348 0.224102,0.324595 l 1.298,1.298 h -1.517999 c -0.72893,1.28e-4 -1.449074,-0.159126 -2.10998,-0.466605 C 14.797115,12.232166 14.211431,11.783901 13.742,11.226251 L 6.396,2.49625 C 5.73903,1.715225 4.919222,1.087307 3.994017,0.656488 3.068812,0.22567 2.060592,0.002377 1.04,0.002251 H 0 v 2 h 1.04 c 0.729009,-5e-6 1.449201,0.159404 2.110112,0.467058 C 3.811023,2.776962 4.396664,3.225418 4.866,3.783251 l 7.345,8.729999 c 0.657282,0.7811 1.477456,1.408985 2.403022,1.839638 0.925567,0.430653 1.934127,0.653651 2.954978,0.653362 h 1.518 z" /></g><g
       transform="translate(1,3.971313)"
       id="g16"><path
         id="path18"
         style="fill-opacity:1;fill-rule:nonzero;stroke:none"
         d="M 17.788,5.739712 C 17.600529,5.552184 17.495214,5.297875 17.495214,5.032711 c 0,-0.265164 0.105315,-0.519472 0.292786,-0.707 l 1.298,-1.297 H 17.568001 C 16.839071,3.028584 16.118927,3.187838 15.458021,3.495316 14.797115,3.802794 14.211431,4.25106 13.742,4.808711 l -1.403,1.668 -1.306,-1.554 1.178,-1.4 C 12.868078,2.741557 13.688047,2.113563 14.613436,1.682739 15.538824,1.251917 16.547239,1.02869 17.568001,1.028711 H 19.086 l -1.298,-1.298 c -0.09551,-0.092247 -0.171694,-0.202591 -0.224102,-0.324595 -0.05241,-0.122003 -0.07999,-0.253223 -0.08115,-0.386003 -0.0012,-0.13278 0.02415,-0.26446 0.07443,-0.387356 0.05028,-0.122896 0.124533,-0.234548 0.218426,-0.328441 0.09389,-0.093893 0.205546,-0.168145 0.328442,-0.218426 0.122896,-0.050282 0.254576,-0.075583 0.387356,-0.074429 0.13278,0.00115 0.264,0.02874 0.386003,0.081148 0.122004,0.052409 0.232348,0.128592 0.324595,0.224102 l 3.712,3.712 -3.712,3.713001 c -0.187529,0.187471 -0.441836,0.292786 -0.706999,0.292786 -0.265164,0 -0.519472,-0.105315 -0.707001,-0.292786 z M 6.396,13.538712 8.419,11.13471 7.112,9.581712 4.866,12.251711 C 4.396569,12.809361 3.810885,13.257627 3.149979,13.565106 2.489073,13.872585 1.76893,14.031838 1.04,14.031712 H 0 v 2 h 1.04 c 1.020513,-4e-6 2.028685,-0.223143 2.953885,-0.653786 0.9252,-0.430642 1.74505,-1.058373 2.402115,-1.839214 z" /></g></g></svg>
