<svg height="24" role="img" width="24" viewBox="0 0 24 24" aria-labelledby="shuffle-icon">
  <title id="shuffle-icon">Shuffle</title>
  <path
    d="M5.6,6.9l1.7,1.9L8,8L6.4,6.2c-1.2-1.4-3.1-2.3-5-2.3V5C2.9,4.9,4.5,5.6,5.6,6.9L5.6,6.9z M22.8,16.8l-5-2.8v2.3h-0.2l0,0c-1.7,0-3.3-0.7-4.3-1.9L12,12.8l-0.7,0.8l1.2,1.3c1.2,1.5,3.2,2.4,5.1,2.4h0.2v2.4L22.8,16.8 L22.8,16.8z M17.6,5.4h0.2v2.3l5-2.8l-5-2.8v2.3h-0.2c-1.9,0-3.8,0.9-5.1,2.4l-6.9,8.1c-1.1,1.2-2.7,2-4.3,1.9v1.1 c1.9,0,3.8-0.9,5.1-2.4l6.9-8.1C14.4,6.1,16,5.4,17.6,5.4L17.6,5.4z"
    fill="currentColor"></path>
</svg>
